<?xml version="1.0" encoding="UTF-8" standalone="no"?>
<svg
   xmlns:dc="http://purl.org/dc/elements/1.1/"
   xmlns:cc="http://creativecommons.org/ns#"
   xmlns:rdf="http://www.w3.org/1999/02/22-rdf-syntax-ns#"
   xmlns:svg="http://www.w3.org/2000/svg"
   xmlns="http://www.w3.org/2000/svg"
   viewBox="0 0 682.10669 686.94666"
   height="686.94666"
   width="682.10669"
   xml:space="preserve"
   id="svg872"
   version="1.1"><metadata
     id="metadata878"><rdf:RDF><cc:Work
         rdf:about=""><dc:format>image/svg+xml</dc:format><dc:type
           rdf:resource="http://purl.org/dc/dcmitype/StillImage" /><dc:title></dc:title></cc:Work></rdf:RDF></metadata><defs
     id="defs876" /><g
     transform="matrix(1.3333333,0,0,-1.3333333,0,686.94667)"
     id="g880"><g
       style="fill:#ffee00;fill-opacity:1"
       transform="scale(0.1)"
       id="g882"><path
         id="path884"
         style="fill:#ffee00;fill-opacity:1;fill-rule:nonzero;stroke:none"
         d="m 5115.78,2899.36 c -2.05,13.31 -35.61,25.29 -58.03,43.83 -76.33,63.64 -349.02,331.99 -885.72,314.61 -67.93,-2.16 -129.89,-8.59 -186.27,-18.17 114.31,37.05 173.47,59.27 207.93,72.95 41.58,16.55 315.49,110.43 462.89,591.61 12.58,41.06 48.15,140.26 39.24,147.79 -10.88,9.25 -103.01,-7.24 -196.12,-63.85 -93.38,-56.8 -407.13,-106.33 -444.37,-112.28 -21.9,-3.51 -114.03,10.33 -251.64,-61.95 155.08,159.26 319.61,385.6 363.83,703.48 21.09,152.41 12.16,214.52 5.6,214.12 -9.16,-0.66 -14.37,-0.75 -25.7,-4.09 -34.57,-10.25 -69.57,-39.37 -183.69,-115.74 -114.22,-76.32 -235.22,-160.88 -235.22,-160.88 0,0 41.45,414.99 28.56,424.69 -12.64,9.37 -248.27,7.15 -609.95,-395.65 0,0 41.1,345.01 -26.75,475.15 0,0 -18.79,94.18 -33.55,143.4 -7.39,24.63 -26.68,50.65 -29.86,48.41 -3.79,-2.6 -35.78,-7.93 -87.17,-66.86 -79.79,-91.37 -450.62,-203.22 -512.01,-683.03 -46.46,193.63 -145.08,452.56 -388.46,583.73 -137.43,134.56 -198.58,174.75 -205.63,171.28 -6.19,-3.13 -3.51,-62.98 -24.4,-197.72 -23.48,-151.04 -44.53,-198.83 -44.53,-198.83 0,0 -255.03,224.32 -261.66,230.9 -11.98,11.8 -167.47,-480.69 -121.85,-726.58 0,0 -80.73,62.58 -227.59,137.97 -166.79,85.69 -447.367,100.51 -445.383,87.3 3.348,-22.22 236.746,-478.25 335.003,-638.42 0,0 -628.823,108.06 -617.854,68.73 3.64,-12.93 18.679,-37.63 43.512,-142.59 0,0 -246.805,5.39 -243.583,-15.06 3.532,-22.84 187.09,-326.21 201.192,-342.75 0,0 -190.934,-36.91 -231.25,-39.1 -27.309,-1.53 127.551,-429.1 552.043,-535.87 64.152,-16.13 126.223,-28.12 185.387,-36.39 -139.164,2.65 -293.071,-26.38 -469.911,-91.94 0,0 -102.441,-39.86 -156.543,-82.73 C 282.086,2585.77 12.6641,2540.47 -0.59375,2501.23 5.6875,2472.35 328.516,2251.49 328.516,2251.49 c 0,0 -189.098,-92.38 -202.102,-109.73 -8.91,-12.09 -16.117,-22.87 -13.75,-26.25 2.223,-3.26 14.992,-18.36 47.731,-38.77 75.628,-46.95 748.789,-117.28 790.257,-100.66 41.383,16.45 -365.687,-441.04 -371.957,-671.54 0,0 66.653,-4.81 104.325,-7.91 28.867,-2.31 -122.723,-288.36 -95.262,-287.19 182.91,7.69 486.312,184.67 543.232,225.43 56.88,40.57 134.68,100.95 155.49,120.6 21.04,19.69 -132.73,-255.11 -69.8,-496.829 0,0 19.99,-187.559 21.08,-225.493 0.96,-37.707 54.32,-37.867 53.81,-63.089 -0.51,-30.899 148.27,117.472 218.79,174.57 70.49,56.961 166.29,167.031 212.64,239.73 46.27,72.421 5.04,-568.199 -13.81,-691.39 -6.11,-39.899 2.96,-44.039 9.3,-57.258 1.89,-4.082 67.71,50.109 88.57,64 31.06,20.648 352.11,452.41 372.36,560.41 0,0 171.2,-752.242 229.28,-832.7929 12.57,-17.41794 23.07,-36.94919 31.78,-23.35935 17.05,26.82035 42.6,97.13325 61.87,102.92925 24.73,7.422 97.05,16.543 135.04,123.75 38.08,107.25 106.52,212.012 138.63,490.473 0,0 364,-464.082 411.3,-507.293 18.77,-17.18 117.7,147.352 161.19,411.613 43.71,264.411 -50.19,619.559 -109.51,631.729 0,0 -24.77,39.01 44.2,14.34 39.26,-14.18 190.78,-277.03 540.13,-476.701 58.78,-33.559 183.81,-34.161 184.54,-31.93 28.1,78.449 -246.1,795.821 -246.1,795.821 0,0 6.82,8.22 62.05,-14.38 55.07,-22.66 578.64,-361.23 896.23,-202.52 64.42,32.11 68.13,38.89 68.13,38.89 36.39,156.43 -243.34,452.11 -415.12,586.38 0,0 451.12,18.34 520.31,137.96 0,0 83.19,29.95 126.1,89.25 7.46,10.37 -48.58,113.34 -113.64,158.52 -170.37,118.1 -207.26,162.64 -207.26,162.64 0,0 47.58,57.51 116.39,79.14 68.79,21.58 291.23,158.67 231.77,226.27 0,0 71.59,62.24 69.05,78.51 m -1459.77,8.89 c -69.69,-11.45 -248.79,-15.52 -83.85,-156.84 0,0 30.5,-2.25 -50.93,-50.25 -81.45,-48.09 181.46,-76.66 212.54,-111.43 31.11,-35.1 -260.55,3.22 -254.86,-84.55 5.62,-87.91 -50.09,-32.42 143.61,-239.26 0,0 -116.37,27.02 -129.89,10.69 -13.72,-16.58 254.83,-239.11 253.13,-302.42 0,0 -54.61,-37.9 -77.91,-4.81 -23.24,33.32 -185.55,212.81 -211.82,218.05 -19.8,3.86 -57.71,-5.24 -75.25,-40.08 0,0 70.93,-165.31 48.77,-169.87 -22.33,-4.57 -133.23,73.46 -133.23,73.46 0,0 -72.77,-32.03 -48.8,-97.93 23.67,-65.99 221.46,-290.25 210.17,-303.98 0,0 -16.82,-36.86 -42.36,-34.28 -25.43,2.74 -162.29,250.31 -196.01,259.81 -33.75,9.47 39.29,-231.33 39.29,-231.33 0,0 -123.4,129.96 -156.31,157.11 -32.79,27.22 -37.68,-28.77 -37.68,-28.77 l 35.75,-274.77 c 0,0 -384.53,573.24 -290.46,-110.31 0,0 -8.89,-38.71 -21.58,-37.46 -12.8,1.37 -94.52,226.27 -85.16,287.69 9.57,61.6 -67.38,-170.44 -67.38,-170.44 0,0 -120.58,478.98 -370.29,-11.9 0,0 -17.42,185.43 -55.87,217.25 -38.22,31.77 -70.09,48.88 -79.74,43.06 -9.47,-5.84 -97.85,-89.94 -132.38,-98.28 -34.43,-8.18 27.51,111.19 -23.59,144.47 0,0 4.57,33.21 -25.13,80.96 -29.82,47.79 -58.53,29.92 -230.6,-155.53 0,0 71.93,175.94 71.27,236.68 -0.49,60.67 -67.48,74.63 -67.48,74.63 0,0 -125.23,-95.19 -161.54,-83.46 -36.53,11.78 59.94,128.34 61.64,160.57 0.53,10.16 -13.88,6.25 -13.88,6.25 0,0 -15.01,10.76 -140.81,-62.6 L 1263.4,1888.62 c -14.99,9.12 -35.02,7.42 -28.9,55.82 1.73,13.96 380.92,192.25 363.99,210.96 -16.82,18.55 -143.55,49.58 -143.55,49.58 0,0 79.44,95.83 55.73,106.39 -23.67,10.32 -196.78,24.65 -196.78,24.65 0,0 -29.92,47.56 -23.75,38.17 5.72,-9.5 169.3,25.89 169.3,25.89 l -109.14,85.74 c 0,0 276.02,48.5 32.39,195.18 -90.18,54.2 -184.28,91.33 -285.99,109.7 259.85,-12.84 431.72,52.88 402.56,148.03 0,0 -8.27,34.53 -267.32,129.15 0,0 7.22,30.9 24.49,35.07 17.36,4.18 286.7,-94.42 267.68,-78.59 -19.21,15.89 -117.82,125.52 -100.04,124.52 17.81,-0.79 144.27,-54.28 186.23,-14.95 40.18,37.59 65.43,106.85 91.83,121.89 26.47,15.07 -70.42,104.69 57.25,63.43 0,0 86.52,48.58 18.34,128 -68.16,79.68 -284.27,335.23 68.3,26.68 84.3,-73.85 295.24,151.18 277.88,273.6 0,0 84.29,-84.97 102.15,-94.04 17.84,-9.18 135.84,-23.22 162.67,17.66 12.34,18.84 -43.31,193.03 -7.53,269.69 0,0 15.04,1.34 29.19,-14.93 14.2,-16.4 15.82,-198.13 79.86,-232.65 0,0 71.89,42.13 84.03,73.57 12.26,31.5 -19.52,-196.38 196.18,-98.06 0,0 104.98,93.26 135.12,96.06 29.94,2.8 -22.54,-110.78 3.95,-151.15 26.68,-40.54 115.06,-67.62 143.12,-16.95 28.23,50.53 162.77,151.63 173.25,147.57 10.47,-4.21 -68.45,-214.76 -77.53,-235.42 -13.15,-30.11 -22.43,-74.68 -22.43,-74.68 0,0 10.3,-58.8 83.79,-75 0,0 138.79,81.07 283.19,186.31 -15.14,-18.21 -30.41,-37.13 -45.83,-57.35 0,0 -186.83,-191.9 -186.87,-219.67 0.25,-27.75 64.06,-90.11 116.41,-54.84 52.36,35.06 178.77,87.43 189.82,78.35 10.88,-9.02 31.02,-34.99 4.75,-50.19 -26.37,-15.03 -173.4,-91.93 -173.4,-91.93 0,0 167.95,-11.49 373.38,30.05 -222.37,-90.23 -299.44,-227.57 -297.46,-240.58 6.56,-44.1 352.16,45.48 361.64,23.66 49.57,-112.54 -109.48,-43 -179.34,-54.76" /></g></g></svg>